<?xml version="1.0" encoding="UTF-8"?>
<!DOCTYPE svg PUBLIC "-//W3C//DTD SVG 1.1//EN" "http://www.w3.org/Graphics/SVG/1.1/DTD/svg11.dtd">
<!-- Creator: CorelDRAW -->
<svg xmlns="http://www.w3.org/2000/svg" xml:space="preserve" width="2048px" height="2048px" style="shape-rendering:geometricPrecision; text-rendering:geometricPrecision; image-rendering:optimizeQuality; fill-rule:evenodd; clip-rule:evenodd"
viewBox="0 0 2048 2048"
 xmlns:xlink="http://www.w3.org/1999/xlink">
 <defs>
  <style type="text/css">
   <![CDATA[
    .fil3 {fill:none}
    .fil1 {fill:none;fill-rule:nonzero}
    .fil0 {fill:#424242}
    .fil2 {fill:#424242;fill-rule:nonzero}
   ]]>
  </style>
 </defs>
 <g id="Layer_x0020_1">
  <metadata id="CorelCorpID_0Corel-Layer"/>
  <path class="fil0" d="M1244.7 1183.76l-70.5697 -294.981 61.3666 29.0044c19.298,9.12166 39.8256,17.8854 58.4729,28.1587 16.3228,8.99056 31.2331,20.0339 37.0299,38.6764 6.36142,20.4626 -1.59921,39.8174 -10.2969,58.0937 -42.8729,90.0898 -102.571,127.41 -11.8654,173.966 0.741733,0.380315 1.55315,0.819686 2.32559,1.12913 15.4713,6.21024 32.7886,7.58032 48.6178,1.8874 31.6748,-11.3917 73.9843,-94.9642 87.665,-124.051 9.95316,-21.163 19.1327,-42.7264 27.6803,-64.493 11.6929,-29.7673 14.4118,-63.3886 6.7252,-94.5013 -5.95158,-24.0886 -19.0725,-49.063 -40.4221,-62.8489 -23.9232,-15.45 -47.778,-31.0831 -71.491,-46.8567 -33.4477,-22.2496 -67.1315,-44.1662 -101.356,-65.2028 -54.9119,-33.7512 -114.129,-67.728 -174.121,-91.48 -0.22441,-0.0885827 -0.624804,-0.187795 -0.937796,-0.167717 -9.04843,16.3583 -22.5437,29.5547 -39.3307,37.8485 -13.4799,6.65788 -28.5508,9.92717 -43.5733,9.5941 -15.0213,-0.333071 -29.7933,-4.31575 -42.9532,-11.5689 -16.0417,-8.84174 -29.1118,-21.8386 -37.0205,-38.4662 -0.144095,-0.302362 -0.462992,-0.799607 -0.801969,-1.08898 -82.441,27.9697 -144.181,96.2859 -201.736,158.333 -17.341,18.6957 -34.6878,37.3961 -52.6713,55.48l-21.1559 21.2729 -22.9276 -19.3536c-32.837,-27.7181 -112.426,-112.269 -157.389,-109.763 -16.4622,0.916536 -31.7374,10.2709 -43.9937,20.7791l-0.67441 0.754725c-11.4768,12.8339 -17.4,29.5358 -16.4421,46.7351 0.89882,16.1327 8.49213,30.8339 19.3512,42.541l15.6083 15.4807c26.0882,25.3902 52.8579,50.2855 79.8922,74.5678 23.1484,20.791 46.8107,41.478 71.2654,60.7205 8.38938,6.60119 31.0099,24.4512 41.2051,28.1918 15.0165,2.40473 31.7422,-0.265748 43.35,-10.715 1.06417,-0.99567 2.10591,-1.94055 3.2563,-2.84764l180.94 -142.805 -162.135 525.39c-0.210236,0.68504 -0.49252,1.5189 -0.696851,2.30079l97.5166 0.82441 0 258.664c0,35.3528 11.628,73.6406 44.8406,91.2485 9.5256,5.04922 20.0445,7.78938 30.8386,7.78938 10.7941,0 21.3118,-2.73898 30.8386,-7.78819 33.2126,-17.6079 44.8394,-55.8969 44.8394,-91.2497l0 -257.078 101.747 0 0 257.078c0,35.3528 11.628,73.6406 44.8394,91.2485 9.52678,5.0504 20.0445,7.78938 30.8386,7.78938 10.7941,0 21.3118,-2.7378 30.8386,-7.78819 31.2236,-16.5532 43.3689,-51.3827 44.713,-84.8694l-0.0011811 -269.485 95.0292 3.21733c0.786615,0.0271654 1.72441,0.0885827 2.59606,0.0874016l-59.6658 -249.403z"/>
  <path class="fil1" d="M499.709 813.534c-0.201969,-0.17126 -0.405118,-0.347244 -0.603544,-0.526772"/>
  <path class="fil2" d="M1022.91 612.833c-49.265,0 -93.8705,-19.9725 -126.158,-52.2579 -32.2866,-32.2866 -52.2591,-76.8934 -52.2591,-126.158 0,-39.7618 13.0854,-76.5485 35.1992,-106.292 22.6477,-30.4595 54.7512,-53.4508 91.943,-64.6063 8.1189,-2.43425 16.5721,-4.31693 25.304,-5.59607l-0.00236221 -0.0129921 0.00826772 -0.0011811 -0.00472441 -0.0283465c0.427559,-0.0625985 0.852757,-0.113386 1.27913,-0.153543 8.19213,-1.1374 16.441,-1.72795 24.691,-1.72795 49.2662,0 93.8717,19.9725 126.158,52.2591 32.2866,32.2878 52.2591,76.8934 52.2591,126.16 0,49.265 -19.9725,93.8717 -52.2591,126.158 -32.2866,32.2855 -76.8922,52.2579 -126.158,52.2579zm-91.6312 -86.7863c23.4484,23.4473 55.8473,37.9524 91.6312,37.9524 35.7851,0 68.1827,-14.5051 91.6312,-37.9524 23.4473,-23.4473 37.9512,-55.8461 37.9512,-91.63 0,-35.7851 -14.5039,-68.1827 -37.9512,-91.6312 -23.4484,-23.4473 -55.8461,-37.9524 -91.6312,-37.9524 -6.18544,0 -12.1476,0.4063 -17.8665,1.19055 -0.347244,0.0661418 -0.699213,0.126378 -1.05236,0.178347l-3.52559 -24.1618 3.43347 24.1311c-6.1878,0.902363 -12.3177,2.27717 -18.3402,4.08307 -27.0343,8.10827 -50.3457,24.7866 -66.7607,46.865 -16.0016,21.5232 -25.4717,48.267 -25.4717,77.2973 0,35.7839 14.5051,68.1827 37.9524,91.63z"/>
  <path class="fil2" d="M1636.64 558.998c-1.89449,8.77914 3.68504,17.4343 12.4642,19.3288 8.77914,1.89567 17.4343,-3.68386 19.3288,-12.463 0.512599,-2.34685 0.914174,-4.86615 1.20354,-7.54607 0.295276,-2.74252 0.444095,-5.28544 0.444095,-7.61339 0,-19.6677 -7.97245,-37.4764 -20.8642,-50.3658 -12.8882,-12.8906 -30.6981,-20.863 -50.3646,-20.863 -11.8358,0 -23.3492,2.99882 -33.5953,8.49213 -10.2413,5.49095 -19.1291,13.4469 -25.715,23.3563 -4.95118,7.47875 -2.90079,17.5583 4.57796,22.5095 7.47875,4.95 17.5583,2.90079 22.5095,-4.57796 3.59764,-5.41418 8.39646,-9.72993 13.8886,-12.6744 5.48622,-2.94095 11.7685,-4.54961 18.3343,-4.54961 10.6795,0 20.3504,4.32874 27.3461,11.3256 6.99804,6.99567 11.3256,16.6665 11.3256,27.3473 0,1.61102 -0.0637796,3.00827 -0.190158,4.17874 -0.132284,1.23425 -0.364961,2.60906 -0.693308,4.11496z"/>
  <path class="fil2" d="M1573.33 485.4c-5.82874,6.8126 -5.0315,17.0622 1.7811,22.891 6.81142,5.82993 17.061,5.0315 22.891,-1.77992 8.40001,-9.79253 14.9055,-20.9173 19.3051,-32.8063 4.4067,-11.9055 6.71457,-24.561 6.71457,-37.4008 0,-29.7933 -12.0791,-56.7697 -31.604,-76.2934 -19.5236,-19.526 -46.5012,-31.604 -76.2945,-31.604 -12.9366,0 -25.7528,2.38229 -37.8544,6.92481 -12.0555,4.52363 -23.289,11.191 -33.1122,19.7728 -6.74174,5.89843 -7.42442,16.148 -1.52599,22.891 5.89843,6.74174 16.1492,7.42442 22.891,1.52599 6.87048,-6.00355 14.6976,-10.6547 23.0669,-13.7965 8.32087,-3.12284 17.3032,-4.76103 26.5347,-4.76103 20.8063,0 39.6449,8.43308 53.276,22.0654 13.6323,13.6311 22.0654,32.4685 22.0654,53.2748 0,9.04371 -1.60866,17.9126 -4.67953,26.2087 -3.07441,8.31024 -7.61103,16.0748 -13.4551,22.8874z"/>
  <path class="fil2" d="M1456.79 440.205c-1.89449,8.77914 3.68504,17.4343 12.4642,19.3288 8.77914,1.89567 17.4343,-3.68386 19.3288,-12.463 0.700394,-3.20788 1.24606,-6.60119 1.62874,-10.1575 0.389764,-3.6189 0.587008,-7.04764 0.587008,-10.2602 0,-26.4732 -10.7315,-50.4426 -28.0819,-67.793 -17.3504,-17.3504 -41.3197,-28.0819 -67.7918,-28.0819 -26.4732,0 -50.4437,10.7327 -67.7941,28.0819 -17.3504,17.3504 -28.0819,41.3197 -28.0819,67.793 0,11.6421 2.15551,23.1414 6.25749,33.9567 4.08307,10.7587 10.1197,20.8004 17.9067,29.5855 5.93504,6.7063 16.1858,7.33347 22.8921,1.39843 6.7063,-5.93504 7.33347,-16.1847 1.39843,-22.891 -5.11536,-5.77205 -9.09686,-12.4039 -11.8028,-19.5378 -2.68465,-7.07717 -4.09489,-14.6988 -4.09489,-22.5118 0,-17.4862 7.08662,-33.3177 18.5433,-44.7744 11.4579,-11.4567 27.2894,-18.5433 44.7756,-18.5433 17.4851,0 33.3166,7.08662 44.7733,18.5433 11.4567,11.4567 18.5433,27.2882 18.5433,44.7744 0,2.49685 -0.111024,4.77638 -0.33189,6.8256 -0.227953,2.11063 -0.602363,4.35827 -1.11969,6.72638z"/>
  <path class="fil2" d="M379.571 645.819c1.89449,8.77914 10.5496,14.3587 19.3288,12.4642 8.77914,-1.89567 14.3587,-10.5508 12.4642,-19.3299 -0.328347,-1.50591 -0.561024,-2.88071 -0.693308,-4.11378 -0.126378,-1.17047 -0.190158,-2.5689 -0.190158,-4.17992 0,-10.6795 4.32756,-20.3504 11.3256,-27.3461 6.99567,-6.99804 16.6665,-11.3256 27.3461,-11.3256 6.56575,0 12.848,1.60748 18.3343,4.54961 5.49213,2.94331 10.291,7.26024 13.8886,12.6732 4.95118,7.47875 15.0307,9.52914 22.5095,4.57796 7.47875,-4.95 9.52914,-15.0295 4.57796,-22.5083 -6.58583,-9.91064 -15.4736,-17.8665 -25.715,-23.3563 -10.2461,-5.49449 -21.7595,-8.49331 -33.5953,-8.49331 -19.6666,0 -37.4764,7.97245 -50.3646,20.8642 -12.8917,12.8882 -20.8642,30.6981 -20.8642,50.3646 0,2.32914 0.148819,4.87205 0.444095,7.61339 0.28937,2.67992 0.690945,5.19922 1.20354,7.54607z"/>
  <path class="fil2" d="M449.996 586.466c5.82993,6.8126 16.0795,7.60985 22.891,1.7811 6.8126,-5.82993 7.60985,-16.0795 1.7811,-22.891 -5.8441,-6.81378 -10.3807,-14.5772 -13.4551,-22.8874 -3.07087,-8.29607 -4.67953,-17.1662 -4.67953,-26.2087 0,-20.8063 8.43308,-39.6449 22.0654,-53.276 13.6311,-13.6323 32.4697,-22.0654 53.276,-22.0654 9.2315,0 18.2138,1.63937 26.5347,4.76221 8.3693,3.14055 16.1965,7.79292 23.0669,13.7953 6.74174,5.89961 16.9925,5.21693 22.891,-1.52599 5.89843,-6.74174 5.21575,-16.9914 -1.52599,-22.891 -9.82324,-8.5819 -21.0567,-15.248 -33.1122,-19.7728 -12.1016,-4.54134 -24.9177,-6.92481 -37.8544,-6.92481 -29.7933,0 -56.7709,12.0791 -76.2945,31.604 -19.5248,19.5248 -31.604,46.5012 -31.604,76.2945 0,12.8386 2.30788,25.4941 6.71457,37.4008 4.39961,11.8878 10.9051,23.0126 19.3051,32.8051z"/>
  <path class="fil2" d="M559.417 527.026c1.89449,8.77914 10.5496,14.3587 19.3288,12.4642 8.77914,-1.89567 14.3587,-10.5508 12.4642,-19.3299 -0.517323,-2.36693 -0.891733,-4.61575 -1.11969,-6.7252 -0.220866,-2.0504 -0.33189,-4.32992 -0.33189,-6.82678 0,-17.4862 7.08662,-33.3177 18.5433,-44.7744 11.4567,-11.4555 27.2882,-18.5433 44.7733,-18.5433 17.4862,0 33.3177,7.0878 44.7756,18.5433 11.4567,11.4567 18.5433,27.2882 18.5433,44.7744 0,7.813 -1.41024,15.4347 -4.09489,22.513 -2.70591,7.13386 -6.68741,13.7658 -11.8028,19.5366 -5.93504,6.7063 -5.30788,16.9559 1.39843,22.891 6.7063,5.93504 16.9571,5.30788 22.8921,-1.39843 7.78701,-8.78505 13.8236,-18.8256 17.9067,-29.5855 4.10197,-10.8142 6.25749,-22.3146 6.25749,-33.9567 0,-26.4732 -10.7315,-50.4426 -28.0819,-67.7918 -17.3504,-17.3492 -41.3209,-28.0831 -67.7941,-28.0831 -26.4721,0 -50.4414,10.7327 -67.7918,28.0831 -17.3504,17.3492 -28.0819,41.3185 -28.0819,67.7918 0,3.2126 0.197244,6.64134 0.587008,10.2602 0.382677,3.55748 0.928347,6.94961 1.62874,10.1575z"/>
  <path class="fil2" d="M1041.74 274.427c-12.7476,4.37126 -33.0496,77.8654 -28.6784,90.6131 3.25866,9.50552 8.49804,18.1772 15.2221,25.924 15.2386,17.5571 38.3067,29.9811 62.4827,36.0685 24.0047,6.04371 49.9111,6.05906 70.9878,-1.16693l0.00472441 0.0141732c0.572835,-0.194882 1.13268,-0.412205 1.67953,-0.644882 8.93977,-3.27402 17.1012,-7.88741 24.065,-13.9311 16.4977,-14.2772 -131.799,-141.666 -145.763,-136.877z"/>
  <path class="fil2" d="M1063.58 281.37c-0.157087,-13.4315 -11.1756,-24.1925 -24.6071,-24.0355 -13.4327,0.157087 -24.1937,11.1756 -24.0366,24.6083 -28.3996,-27.3874 -168.161,117.643 -149.609,151.374 -13.1162,2.94921 -21.3567,15.9744 -18.4075,29.0906 2.94921,13.115 15.9744,21.3567 29.0906,18.4075 12.6402,-2.85709 22.3406,-4.8626 31.4563,-6.74764l11.0032 -2.26772c49.35,-10.3984 85.1339,-32.9811 109.067,-64.6323 25.4563,-33.665 36.7111,-76.8119 36.0437,-125.797z"/>
 </g>
 <rect class="fil3" width="2048" height="2048"/>
</svg>
