<svg id="Layer_1" data-name="Layer 1" xmlns="http://www.w3.org/2000/svg" viewBox="0 0 512 512"><defs><style>.cls-1{fill:#141f38;}</style></defs><title>bottled-water-outline</title><path class="cls-1" d="M307.2,82.64v-57A25.63,25.63,0,0,0,281.6,0H230.4a25.63,25.63,0,0,0-25.6,25.6v57c-33.31,23.7-51.2,72.79-51.2,109.36V371.2h0V448a64.07,64.07,0,0,0,64,64h76.8a64.07,64.07,0,0,0,64-64V371.2h0V192C358.4,155.43,340.51,106.34,307.2,82.64Zm-25.6-57V51.2H230.4V25.6ZM179.2,243.2H332.8V345.6H179.2ZM332.8,448a38.44,38.44,0,0,1-38.4,38.4H217.6A38.44,38.44,0,0,1,179.2,448V371.2H332.8ZM179.2,217.6V192c0-36,20.1-77,44.82-91.32L230.4,97V76.8h51.2V97l6.38,3.7C312.7,115,332.8,156,332.8,192v25.6Z"/></svg>