<?xml version="1.0" encoding="UTF-8"?>
<svg version="1.1" xmlns="http://www.w3.org/2000/svg" width="512" height="512">
<path d="M0 0 C0.87140625 0.49371094 1.7428125 0.98742187 2.640625 1.49609375 C18.18020603 11.08607995 27.9748774 27.09060455 32.96875 44.34765625 C39.18950356 70.81465866 33.34211038 95.79497 19.25 118.5625 C18.76587646 119.32498047 18.28175293 120.08746094 17.78295898 120.87304688 C13.54202808 127.553833 10.85355329 132.91608091 12 141 C14.33027133 145.46635338 17.13027582 146.64362558 21.76904297 148.29980469 C65.32882271 161.97122604 117.02253704 148.25838525 155.93481445 127.98510742 C158.99060567 126.36014191 162.03442877 124.71457036 165.0703125 123.05273438 C167.65319558 121.6436514 170.25585735 120.27788477 172.875 118.9375 C173.57367188 118.57527344 174.27234375 118.21304688 174.9921875 117.83984375 C178.38873265 116.41910988 181.03590887 115.74749994 184.625 116.6875 C188.05268239 118.58174553 189.57613483 120.76372659 190.84375 124.4609375 C193.26393166 135.20769652 194.67613442 146.07147069 196 157 C196.10731445 157.87172852 196.21462891 158.74345703 196.32519531 159.64160156 C201.64757087 203.82576693 194.64927648 251.72624017 167.06445312 287.90209961 C155.67822118 302.20350249 142.48068663 314.30599998 127 324 C126.04673828 324.60763184 126.04673828 324.60763184 125.07421875 325.22753906 C75.59900613 356.34160911 4.24271192 360.92387793 -51.7578125 348.5390625 C-78.69286593 342.14440953 -103.86945013 331.05192671 -125 313 C-125.81984375 312.31421875 -126.6396875 311.6284375 -127.484375 310.921875 C-147.65194524 293.51012181 -161.83856046 268.80185036 -164 242 C-165.17162685 218.82375635 -157.09965344 197.43650456 -142 180 C-141.4121875 179.29101562 -140.824375 178.58203125 -140.21875 177.8515625 C-136.18794234 173.06955886 -131.76323855 169.03635295 -127 165 C-115.30715366 155.43022941 -115.30715366 155.43022941 -109.5625 142 C-109.69990896 134.79366369 -114.66650369 127.89625577 -119.625 123 C-126.67267891 117.53886099 -136.45755303 116.84534163 -145.03149414 115.31469727 C-155.31947325 113.47389153 -165.4727397 111.29301728 -175.5625 108.5625 C-176.57787842 108.29856445 -177.59325684 108.03462891 -178.6394043 107.76269531 C-187.03916964 105.40580061 -195.21884497 101.64984804 -200 94 C-202.16587848 89.23506733 -202.83673938 84.17338865 -202 79 C-200.91625977 76.48657227 -200.91625977 76.48657227 -199 74 C-195.86181641 72.79492188 -195.86181641 72.79492188 -191.9765625 71.96875 C-190.52632804 71.64470639 -189.07613434 71.32048032 -187.62597656 70.99609375 C-186.48835876 70.75318604 -186.48835876 70.75318604 -185.32775879 70.50537109 C-181.45992989 69.66564108 -177.61840668 68.71920979 -173.7734375 67.78125 C-172.21226471 67.40224025 -170.65106668 67.02333441 -169.08984375 66.64453125 C-167.92751221 66.36150146 -167.92751221 66.36150146 -166.74169922 66.07275391 C-165.14698138 65.68682364 -163.55124738 65.30507125 -161.95458984 64.92724609 C-159.59968192 64.36891502 -157.24893537 63.79532697 -154.8984375 63.21875 C-154.19214203 63.05507935 -153.48584656 62.89140869 -152.75814819 62.72277832 C-147.19436357 61.33340338 -142.58916521 59.50654469 -139.43603516 54.53320312 C-139.05753418 53.62505859 -138.6790332 52.71691406 -138.2890625 51.78125 C-137.85335937 50.77223633 -137.41765625 49.76322266 -136.96875 48.72363281 C-136.30359375 47.12793457 -136.30359375 47.12793457 -135.625 45.5 C-124.66286518 20.5167022 -108.37922272 2.63375254 -83 -8 C-54.6407951 -18.19908271 -25.90772844 -14.74161471 0 0 Z M-101.44140625 41.46875 C-105.38224451 46.04955345 -106.36248907 48.78964582 -106.27734375 54.68359375 C-105.68627752 59.6202455 -102.87977414 62.27663015 -99.1875 65.3125 C-95.50766587 67.26064748 -93.17441454 68 -89 68 C-83.67049516 66.30015793 -80.10187995 63.71485752 -77 59 C-75.26314947 55.52629893 -75.53884888 51.79809188 -76 48 C-78.2146685 43.65268775 -80.80721395 40.51567163 -85 38 C-91.3643762 36.27926125 -96.58274939 36.5179235 -101.44140625 41.46875 Z " fill="#000000" transform="translate(258,86)"/>
</svg>
