<svg id="visual" viewBox="0 0 900 600" width="900" height="600" xmlns="http://www.w3.org/2000/svg" xmlns:xlink="http://www.w3.org/1999/xlink" version="1.1"><rect x="0" y="0" width="900" height="600" fill="#005395"></rect><path d="M171 0L169.8 16.7C168.7 33.3 166.3 66.7 161.3 100C156.3 133.3 148.7 166.7 137.8 200C127 233.3 113 266.7 118.7 300C124.3 333.3 149.7 366.7 159.2 400C168.7 433.3 162.3 466.7 161.5 500C160.7 533.3 165.3 566.7 167.7 583.3L170 600L0 600L0 583.3C0 566.7 0 533.3 0 500C0 466.7 0 433.3 0 400C0 366.7 0 333.3 0 300C0 266.7 0 233.3 0 200C0 166.7 0 133.3 0 100C0 66.7 0 33.3 0 16.7L0 0Z" fill="#f9f9f9" stroke-linecap="round" stroke-linejoin="miter"></path></svg>